# xmcd
#
# Track frame offsets:
#        150
#        14921
#        46025
#        78500
#        85099
#        94978
#        107246
#        133602
#        152788
#        172745
#        197663
#        221352
#        243740
#
# Disc length: 4460 seconds
#
# Revision: 0
# Processed by: cddbd v1.5.2PL0 Copyright (c) Steve Scherf et al.
# Submitted via: ExactAudioCopyFreeDBPlugin 1.0
#
DISCID=a9116a0d
DTITLE=Various Artist - Through a Dog's Ear Driving Edition: Music to Calm Your Dog in the Car
DYEAR=2008
DGENRE=Classical
TTITLE0=Prelude Op. 28 No. 7 - Chopin
TTITLE1=Intermezzo Op. 118 No. 2 - Brahms
TTITLE2=Sonata K. 331 Andante grazioso: Theme and Variations - Mozart
TTITLE3=Prelude WTC bk. 1 No. 9 - Bach
TTITLE4=Allemande from French Suite No. 4 - Bach
TTITLE5=Prelude WTC Bk. 1 No. 9 - Bach
TTITLE6=Reflets dans l'eau from Images Bk. 1 - Debussy
TTITLE7=Dreaming from Sketches Op. 15 - Amy Beach
TTITLE8=Caprice from "Alceste" - Gluck
TTITLE9=Sonata K. 380 Longo 23 - Scarlatti
TTITLE10=Sonata Op. 31 No. 3 Scherzo - Beethoven
TTITLE11=Sonata Op. 14 No. 2 Adante - Beethoven
TTITLE12=Travel Prep - Various Artists
EXTD=
EXTT0=
EXTT1=
EXTT2=
EXTT3=
EXTT4=
EXTT5=
EXTT6=
EXTT7=
EXTT8=
EXTT9=
EXTT10=
EXTT11=
EXTT12=
PLAYORDER=
